<svg width="32" height="32" viewBox="0 0 56 56" fill="none" xmlns="http://www.w3.org/2000/svg">
  <rect width="56" height="56" fill="#0f1117"/>
  <!-- Bar 1 -->
  <path d="M6 42 L12 42 Q14 42 14 44 L14 52 L4 52 L4 44 Q4 42 6 42 Z" fill="white"/>
  <!-- Bar 2 -->
  <path d="M19 32 L25 32 Q27 32 27 34 L27 52 L17 52 L17 34 Q17 32 19 32 Z" fill="white"/>
  <!-- Bar 3 -->
  <path d="M32 20 L38 20 Q40 20 40 22 L40 52 L30 52 L30 22 Q30 20 32 20 Z" fill="white"/>
  <!-- Bar 4 -->
  <path d="M45 8 L51 8 Q53 8 53 10 L53 52 L43 52 L43 10 Q43 8 45 8 Z" fill="white"/>
  <!-- Trend arrow: tip at (52,4) above bar 4's top edge (y=8) -->
  <line x1="4" y1="44" x2="52" y2="4" stroke="white" stroke-width="2.5" stroke-linecap="round"/>
  <line x1="52" y1="4" x2="46" y2="8"  stroke="white" stroke-width="2.5" stroke-linecap="round"/>
  <line x1="52" y1="4" x2="55" y2="10" stroke="white" stroke-width="2.5" stroke-linecap="round"/>
</svg>
