<svg width="180" height="32" viewBox="0 0 180 32" fill="none" xmlns="http://www.w3.org/2000/svg">
  <!-- Mark at 32px tall: scale(32/56 = 0.5714) -->
  <g transform="scale(0.5714)">
    <path d="M6 42 L12 42 Q14 42 14 44 L14 52 L4 52 L4 44 Q4 42 6 42 Z" fill="white"/>
    <path d="M19 32 L25 32 Q27 32 27 34 L27 52 L17 52 L17 34 Q17 32 19 32 Z" fill="white"/>
    <path d="M32 20 L38 20 Q40 20 40 22 L40 52 L30 52 L30 22 Q30 20 32 20 Z" fill="white"/>
    <path d="M45 8 L51 8 Q53 8 53 10 L53 52 L43 52 L43 10 Q43 8 45 8 Z" fill="white"/>
    <line x1="4" y1="44" x2="50" y2="10" stroke="white" stroke-width="2.5" stroke-linecap="round"/>
    <line x1="50" y1="10" x2="44" y2="14" stroke="white" stroke-width="2.5" stroke-linecap="round"/>
    <line x1="50" y1="10" x2="46" y2="16" stroke="white" stroke-width="2.5" stroke-linecap="round"/>
  </g>
  <!-- Wordmark: x=42 (mark width 32 + gap 10) -->
  <text x="42" y="22" font-family="system-ui, -apple-system, sans-serif" font-size="15" font-weight="700" letter-spacing="-0.6" fill="white">ProprStats</text>
</svg>
